<svg xmlns="http://www.w3.org/2000/svg" viewBox="0 0 2860 666.4"><defs><style>.cls-1{fill:#f48422;fill-rule:evenodd}.cls-2{fill:#525252}</style></defs><title>Recurso 1</title><g id="Capa_2" data-name="Capa 2"><g id="Capa_1-2" data-name="Capa 1"><g id="Capa_1-3" data-name="Capa_1"><g id="_3213903084320" data-name="3213903084320"><path d="M179.54,641.59h183c4.91,0,6.4-1.49,6.4-6.41V154.73H539.73V370.4l7.91,60.42C559.35,502.76,579.57,544,627.77,592,666,630,755.85,654.4,806.65,654.4c46.41,0,76.61-.77,121-13.52,30.1-8.64,61.14-20.4,85.25-38.6,4.23-3.18,5.3-4.89,9.12-8a193.84,193.84,0,0,0,19-17.28c24.94-25.21,39.3-57.2,50.41-90.51,5.65-17,12-37.41,14-56.5,2.32-22.39,6.56-33.63,6.56-63.9V11.66a23.39,23.39,0,0,0-.42-4.6H912.5s0,43.55,0,51.88v1.17c-.69,102.76,5.84,296.22-3.58,350.62-5.93,34.18-31.48,72.84-68.1,72.84-20.24,0-37,2.32-53.89-8-41.25-25.3-47.74-75.89-47.77-128.47h-.62V7.06H0V152.59H179.54v489Z" class="cls-1"/><path d="M1129,202.86c0,87,45.49,142.1,117.57,179.25,56.88,29.33,138.67,39.84,138.67,96.21,0,63.63-132.2,33.37-170.13,16.39l-30-14.84c-19.47-8.83-31.29-20-38.39-23.55V633.75c18.94,4.73,16,5.68,32.27,10.25l30.52,7.91c69.37,18.88,160.37,19.8,229.59-.16,8.74-2.51,12.6-3.25,22.12-5.64,9.31-2.34,12.28-5.24,21.45-8.44,37.6-13.17,74.62-43.58,94.68-78.28,26.58-45.91,33.21-102.35,18.76-155.28-13.71-50.25-55-84.85-98.58-110.68l-63.87-32.22c-23.19-10.3-41.37-15.44-66.23-29.85-48.34-28-30.06-81.89,30.62-81.89,54.3,0,88.56,3.19,138.08,26.34,5.58,2.62,13.78,7,21.59,9.7V22.31c-5.11-1.2-11.65-2.42-19.57-4.38C1482.89,4.21,1453,0,1393.79,0c-42.48,0-84.9,5-123.27,19.79l-51.23,23.52c-2.56,1.66-6,4.3-8.74,6.2-21.39,14.68-43.45,37.51-57.19,60.26-12.91,21.36-24.36,59.71-24.36,93.09Z" class="cls-1"/><path d="M1708,601.89h.83a48.25,48.25,0,0,0,19,14.67,56.32,56.32,0,0,0,22,4.59q15.73,0,22.26-7t6.52-18.87a20.36,20.36,0,0,0-6-15q-6-6-20.08-11.18l-16.15-6q-13.66-5.19-20.18-14.71a38,38,0,0,1-6.53-22,43.38,43.38,0,0,1,3-16.39,35.94,35.94,0,0,1,8.69-12.84,39.55,39.55,0,0,1,13.87-8.42,54.22,54.22,0,0,1,18.74-3,57,57,0,0,1,9.31.83,71.14,71.14,0,0,1,9.63,2.28,42.45,42.45,0,0,1,8.49,3.62,29.19,29.19,0,0,1,6.31,4.66V513.7h-.82a39,39,0,0,0-16.05-11.18,51.61,51.61,0,0,0-18.12-3.52,37.61,37.61,0,0,0-13.76,2.17,22.85,22.85,0,0,0-8.69,5.7,20.14,20.14,0,0,0-4.56,8.07,32.63,32.63,0,0,0-1.35,9.32,29.89,29.89,0,0,0,.94,7.56,20.43,20.43,0,0,0,3.31,6.93,25.36,25.36,0,0,0,6.52,6.11,48.45,48.45,0,0,0,10.35,5.07l18,6.62q14.7,5.6,22.36,14.19t7.66,22.88a49.63,49.63,0,0,1-2.48,15.73,34.82,34.82,0,0,1-7.77,13,36.21,36.21,0,0,1-13.66,8.8q-8.38,3.21-20.39,3.21a70.54,70.54,0,0,1-22.57-3.83,43.73,43.73,0,0,1-18.63-11.7Zm194.61-21.53a66.21,66.21,0,0,1-3.52,22.16,52.06,52.06,0,0,1-9.63,17A42,42,0,0,1,1875,630.36a44.75,44.75,0,0,1-36.23,0,41,41,0,0,1-14.39-10.87,51.86,51.86,0,0,1-9.42-17,67.8,67.8,0,0,1-3.42-22.16,67,67,0,0,1,3.52-22.25,50.78,50.78,0,0,1,9.74-17.08,42.82,42.82,0,0,1,32.7-14.7,44,44,0,0,1,18.23,3.72A41,41,0,0,1,1890,540.72a49.12,49.12,0,0,1,9.32,17,72.15,72.15,0,0,1,3.31,22.67Zm-14.08.11a60.68,60.68,0,0,0-2.17-16.7,38.25,38.25,0,0,0-6.32-13,27.78,27.78,0,0,0-23-11.21,27.8,27.8,0,0,0-22.77,11.21,39.92,39.92,0,0,0-6.42,12.87,57.54,57.54,0,0,0-2.28,16.81q0,19.31,8.9,29.88a28.62,28.62,0,0,0,23,10.59,27.64,27.64,0,0,0,22.68-11.11,38.31,38.31,0,0,0,6.21-12.77,59.61,59.61,0,0,0,2.17-16.59Zm32.92,26.81h.83a34.83,34.83,0,0,0,14.6,10.28,46.78,46.78,0,0,0,16.66,3.38,31.69,31.69,0,0,0,9.63-1.24,13.93,13.93,0,0,0,5.9-3.42,11.9,11.9,0,0,0,2.9-5,21.91,21.91,0,0,0,.83-6,13.76,13.76,0,0,0-3.73-9.9q-3.73-3.93-13.46-7.45l-13-4.35c-7.32-2.31-12.49-5.87-15.53-10.63a30.16,30.16,0,0,1-4.55-16.63q0-13.41,8.9-21.71t24.84-8.24a46,46,0,0,1,7.25.62,53,53,0,0,1,7.55,1.76,46,46,0,0,1,6.73,2.69,18.49,18.49,0,0,1,5,3.42v15.11h-.82a29.92,29.92,0,0,0-12.7-7.8,45.44,45.44,0,0,0-14.15-2.55c-6.76,0-11.63,1.59-14.53,4.76a15.35,15.35,0,0,0-4.38,10.73,16.27,16.27,0,0,0,2.9,9.8c2,2.69,5.41,4.86,10.42,6.52l14.53,4.76q22.88,7.2,22.88,27.68a36.31,36.31,0,0,1-1.87,11.56,24.48,24.48,0,0,1-6,9.73,30.43,30.43,0,0,1-10.55,6.59,42.6,42.6,0,0,1-15.32,2.48,55.84,55.84,0,0,1-8.7-.72,53.15,53.15,0,0,1-8.8-2.18,48.23,48.23,0,0,1-8-3.52,22.37,22.37,0,0,1-6.21-5V607.28ZM2050.64,629a18.59,18.59,0,0,1-8.49,3.83,49.9,49.9,0,0,1-9.11.93,25,25,0,0,1-11-2.49,16.53,16.53,0,0,1-7.67-7,26.48,26.48,0,0,1-3.31-9.83,96.17,96.17,0,0,1-.82-13.56V541.65H1996.6V529.23h13.87v-4.15q0-2.9.11-8.9t.31-16.76h13v29.81h22.78v12.42h-22.78v58.73a60.23,60.23,0,0,0,.52,8.83,19.08,19.08,0,0,0,1.55,5.52,8.12,8.12,0,0,0,3.93,4.25,14.82,14.82,0,0,0,7,1.55,22.65,22.65,0,0,0,6.63-1.07,16.73,16.73,0,0,0,6.21-3.49h.83v13Zm88.85-6.84a40.91,40.91,0,0,1-14.35,8.8,52.43,52.43,0,0,1-18.5,3.21,47.25,47.25,0,0,1-19.64-3.93,42.31,42.31,0,0,1-14.66-10.87,48.45,48.45,0,0,1-9.18-16.77A69.45,69.45,0,0,1,2060,581a72.07,72.07,0,0,1,3.52-23.49,52.56,52.56,0,0,1,9.39-17.19,38.45,38.45,0,0,1,13.73-10.45,39.43,39.43,0,0,1,16.32-3.52q19.41,0,29.12,12.63t9.91,35.19c0,1.8,0,3.59-.1,5.39s-.25,3.65-.52,5.59h-67.08a51.52,51.52,0,0,0,2.69,14.39,33.9,33.9,0,0,0,6.48,11.28,30,30,0,0,0,10.26,7.45,33.31,33.31,0,0,0,13.8,2.69,44.38,44.38,0,0,0,16.83-3.21,40.14,40.14,0,0,0,14.36-10h.83v14.49Zm-11.22-50.92q0-15.12-6.62-23.71T2101.77,539a23.49,23.49,0,0,0-8.9,1.86,25.15,25.15,0,0,0-8.49,5.9,34.25,34.25,0,0,0-6.72,10.56,47.71,47.71,0,0,0-3.42,15.63h54v-1.65Zm38.92,60.24V529.23h13.46v17.18a39.52,39.52,0,0,1,12-13.87q7.88-5.81,19.05-5.8,12,0,19.15,5.49t9.62,15.63a61,61,0,0,1,1.35,9.94q.32,5.38.31,12.83V631.5h-13.66V571.87a96.59,96.59,0,0,0-.73-12.83A38.07,38.07,0,0,0,2226,551a19.27,19.27,0,0,0-6.42-7.65q-4.14-2.91-11.18-2.91a27.86,27.86,0,0,0-16.25,5.29,32.33,32.33,0,0,0-11.28,13.76v72Zm108.07,0V529.23h13.67V631.5Zm16.16-135.81q0,4.76-2.7,7.34a9.16,9.16,0,0,1-6.62,2.59,9.51,9.51,0,0,1-6.53-2.48c-1.86-1.65-2.79-4.14-2.79-7.45q0-5.38,3.11-7.66a10.71,10.71,0,0,1,6.41-2.28,10.24,10.24,0,0,1,6,2.28Q2291.42,490.31,2291.42,495.69Zm31.46,135.81V480.78h13.67v67.29a37.29,37.29,0,0,1,12.52-15.43q8.59-6.32,21-6.31a42,42,0,0,1,17.08,3.41A35.77,35.77,0,0,1,2400.52,540a50.92,50.92,0,0,1,8.8,16.87,75.91,75.91,0,0,1,3.21,23.09,68.63,68.63,0,0,1-3.63,23.19,51.66,51.66,0,0,1-9.62,17,41,41,0,0,1-31.06,14.08q-12,0-20-5.28a35,35,0,0,1-12.12-13.35V631.5Zm13.67-34.36a34.16,34.16,0,0,0,11.8,17.49,30.55,30.55,0,0,0,19,6.31q14.3,0,22.68-11t8.38-30.23a57.52,57.52,0,0,0-2.38-17.39,37.73,37.73,0,0,0-6.52-12.52,26.85,26.85,0,0,0-9.84-7.66,29.32,29.32,0,0,0-12.32-2.59,29.87,29.87,0,0,0-18.84,6.62q-8.48,6.63-12,18.63v32.31ZM2439,631.5V480.78h13.66V631.5Zm119.49-9.32a40.82,40.82,0,0,1-14.35,8.8,52.39,52.39,0,0,1-18.5,3.21,47.17,47.17,0,0,1-19.63-3.93,42.26,42.26,0,0,1-14.67-10.87,48.45,48.45,0,0,1-9.18-16.77A69.45,69.45,0,0,1,2479,581a72.34,72.34,0,0,1,3.52-23.49,52.74,52.74,0,0,1,9.39-17.19,38.54,38.54,0,0,1,13.73-10.45,39.43,39.43,0,0,1,16.32-3.52q19.41,0,29.12,12.63t9.91,35.19c0,1.8,0,3.59-.1,5.39s-.25,3.65-.52,5.59h-67.08a51.52,51.52,0,0,0,2.69,14.39,33.75,33.75,0,0,0,6.49,11.28,29.91,29.91,0,0,0,10.25,7.45,33.35,33.35,0,0,0,13.8,2.69,44.46,44.46,0,0,0,16.84-3.21,40.19,40.19,0,0,0,14.35-10h.83v14.49Zm-11.22-50.92q0-15.12-6.62-23.71T2520.8,539a23.49,23.49,0,0,0-8.9,1.86,25.34,25.34,0,0,0-8.49,5.9,34.25,34.25,0,0,0-6.72,10.56,47.71,47.71,0,0,0-3.42,15.63h54v-1.65Z" class="cls-2"/><path d="M1740.93,161.83V41.68H1705V28.73h86.73v13h-37.28V161.83Zm125.6-8.69a38.28,38.28,0,0,1-13.4,8.21,49,49,0,0,1-17.26,3,44.12,44.12,0,0,1-18.31-3.67,39.39,39.39,0,0,1-13.68-10.15,45.07,45.07,0,0,1-8.57-15.64,64.7,64.7,0,0,1-3-20.19,67.37,67.37,0,0,1,3.29-21.93,49.08,49.08,0,0,1,8.76-16A35.83,35.83,0,0,1,1817.17,67a36.66,36.66,0,0,1,15.23-3.29q18.11,0,27.17,11.79t9.24,32.83c0,1.68,0,3.35-.09,5a51.58,51.58,0,0,1-.49,5.21h-62.59a48.25,48.25,0,0,0,2.52,13.43,31.28,31.28,0,0,0,6,10.52,27.86,27.86,0,0,0,9.56,7,31.12,31.12,0,0,0,12.88,2.51,41.59,41.59,0,0,0,15.71-3,37.65,37.65,0,0,0,13.4-9.37h.77v13.52Zm-10.47-47.52q0-14.1-6.18-22.12t-18.54-8a21.8,21.8,0,0,0-8.31,1.73,23.49,23.49,0,0,0-7.92,5.51,31.92,31.92,0,0,0-6.28,9.85,44.84,44.84,0,0,0-3.19,14.58h50.42Zm13,81.13h.77a10.91,10.91,0,0,0,5.12,2.9,22.67,22.67,0,0,0,5.7.78q6.38,0,8.89-3.87a17.32,17.32,0,0,0,2.31-7.05,92.15,92.15,0,0,0,.58-11.69V66.4h12.75V166.86a100,100,0,0,1-1.06,16.71,26.28,26.28,0,0,1-3.58,9.75,20,20,0,0,1-7.43,6.57,21.66,21.66,0,0,1-10.34,2.51,40.41,40.41,0,0,1-7.53-.67,17.6,17.6,0,0,1-6.18-2.42V186.75Zm38.44-151.64a9.09,9.09,0,0,1-2.51,6.86,8.59,8.59,0,0,1-6.18,2.41,8.86,8.86,0,0,1-6.09-2.32q-2.61-2.31-2.61-7,0-5,2.9-7.15a10,10,0,0,1,6-2.12,9.51,9.51,0,0,1,5.6,2.12c1.94,1.42,2.9,3.8,2.9,7.15Zm29.36,126.72V66.4h12.75v95.43Zm15.07-126.72a9.09,9.09,0,0,1-2.51,6.86,8.6,8.6,0,0,1-6.19,2.41,8.86,8.86,0,0,1-6.08-2.32q-2.61-2.31-2.61-7,0-5,2.9-7.15a10,10,0,0,1,6-2.12A9.51,9.51,0,0,1,1949,28q2.89,2.13,2.9,7.15ZM2045,161.83V145.6A32.64,32.64,0,0,1,2034.46,159q-7.05,5.31-19.22,5.32A38.46,38.46,0,0,1,1987,152a47,47,0,0,1-9.38-15.45,60.07,60.07,0,0,1-3.57-21.64q0-13.14,3.77-22.79a48.12,48.12,0,0,1,9.75-15.94,39,39,0,0,1,13.52-9.37,39.94,39.94,0,0,1,15.27-3.09q10.23,0,17.48,3.67A24.52,24.52,0,0,1,2045,79.16v-58h12.75V161.83Zm0-64.45c-2.19-7.5-5.86-12.91-11-16.3a29.72,29.72,0,0,0-16.42-5,32.47,32.47,0,0,0-11.3,2,24.05,24.05,0,0,0-9.66,6.6,34.41,34.41,0,0,0-6.77,11.91c-1.74,4.9-2.6,11-2.6,18.2a51.37,51.37,0,0,0,2.51,17.12,32.47,32.47,0,0,0,6.66,11.53,24.81,24.81,0,0,0,9.47,6.5,30.18,30.18,0,0,0,10.91,2,28.4,28.4,0,0,0,16.62-5.41c5.15-3.63,9-9.3,11.59-17.06V97.38Zm122.28,16.74a61.56,61.56,0,0,1-3.29,20.67,48.5,48.5,0,0,1-9,15.84,39.38,39.38,0,0,1-13.52,10.14,41.7,41.7,0,0,1-33.81,0,38.37,38.37,0,0,1-13.42-10.14,48.15,48.15,0,0,1-8.79-15.84,63.15,63.15,0,0,1-3.19-20.67,62.71,62.71,0,0,1,3.28-20.77,47.72,47.72,0,0,1,9.08-15.93,40,40,0,0,1,30.52-13.72,41.13,41.13,0,0,1,17,3.47,38.29,38.29,0,0,1,13.33,10A45.92,45.92,0,0,1,2164.18,93a67.3,67.3,0,0,1,3.09,21.15Zm-13.14.1a56.1,56.1,0,0,0-2-15.59,35.57,35.57,0,0,0-5.89-12.1,26.72,26.72,0,0,0-42.69,0,37.35,37.35,0,0,0-6,12,53.53,53.53,0,0,0-2.13,15.68q0,18,8.31,27.88a28.11,28.11,0,0,0,33.42,7.18,26.15,26.15,0,0,0,9.18-7.67,35.66,35.66,0,0,0,5.79-11.91,55,55,0,0,0,2-15.48Z" class="cls-2"/><path d="M1871.35,245.15v116.5q0,48.27-19.51,68.52T1790.7,450.4q-41.91,0-63.31-20.52T1706,361.65V245.15h61V365.41q0,21.39,5.63,31.08t17.78,9.68q11.56,0,15.9-9.25t4.34-31.51V245.15Zm179.23,139.63,17.92,62.73h-66.77L1989,394.61q-5.21-24.28-33.24-24.28h-2.61v77.18h-61V245.15h80.65q32.09,0,50.15,6.07T2047.55,268q6.5,10.69,6.5,28.91a62.32,62.32,0,0,1-3.47,21.39q-3.46,9.54-8.38,14.6a59.86,59.86,0,0,1-10,8.38,38.88,38.88,0,0,1-8.53,4.48l-3.47.87.86.29c.77.38,1.84,1,3.18,1.74s2.9,1.73,4.63,2.89a38.36,38.36,0,0,1,5.64,4.76,58.33,58.33,0,0,1,5.78,6.8,61.78,61.78,0,0,1,5.49,9.39,84,84,0,0,1,4.77,12.29ZM1960.39,331q18.21,0,25.72-4.48t7.52-17.78q0-13.29-7.66-18.93t-23-5.64h-9.83V331ZM2205,342.86c1,.39,2.31.87,4,1.45a56.44,56.44,0,0,1,9.25,4.91,55.13,55.13,0,0,1,11.57,9.25q4.91,5.2,9.1,14.6a50.08,50.08,0,0,1,4.2,20.67q0,25.72-17.06,39.75t-52,14h-91.35V245.15h87.59q68.22,0,68.22,50.59a54.71,54.71,0,0,1-3.47,19.95q-3.47,9-8.38,13.87a60.46,60.46,0,0,1-9.83,8.1,29.66,29.66,0,0,1-8.38,4l-3.47,1.15Zm-24.86-38.44q0-19.38-20-19.37h-16.48v39.6h12.43q14.17,0,19.08-4.91T2180.09,304.42Zm-18.79,102q22.26,0,22.26-21.1,0-21.39-19.37-21.39h-20.53v42.49Zm228.61,41.05-10.41-40.18h-58.39l-10.65,40.18h-56.94l61.81-202.36h72.85l65.91,202.36Zm-56.42-82.68h37.39l-17.34-68.51-20.05,68.51Zm262-119.68h57.82V447.51h-78.63l-48.57-135.58V447.51H2468.3V245.15h78.44l48.75,135.29Zm105.22,23.71Q2725,242,2768.65,242t67.5,26.89Q2860,295.74,2860,345.47t-24,77.32q-24,27.61-67.35,27.61-43.07,0-67.64-27.61t-24.57-77.32Q2676.44,295.73,2700.71,268.86Zm67.94,17.92q-14.46,0-23,14.89t-8.53,43.22q0,28.62,8.67,44.66t23.13,16q13.29,0,21.82-16t8.53-44.38q0-28.32-8.38-43.36T2768.65,286.78Z" class="cls-2"/></g></g></g></g></svg>