<svg xmlns="http://www.w3.org/2000/svg" xmlns:xlink="http://www.w3.org/1999/xlink" viewBox="0 0 1954.91 547.39"><defs><style>.cls-1{fill:none;}.cls-2{isolation:isolate;}.cls-3{fill:#fff;}.cls-4{clip-path:url(#clip-path);}.cls-5{fill:#f60;fill-rule:evenodd;mix-blend-mode:multiply;}</style><clipPath id="clip-path"><rect class="cls-1" x="75.54" y="47.25" width="1280" height="79.9"/></clipPath></defs><title>Recurso 1</title><g class="cls-2"><g id="Capa_2" data-name="Capa 2"><g id="Layer_1" data-name="Layer 1"><rect class="cls-3" x="75.54" y="47.25" width="1280" height="80"/><g class="cls-4"><path class="cls-5" d="M1230.75,305.78v57c-44.78-29.45-86.3-63.6-124-100.18A1278.21,1278.21,0,0,1,1228.51,304C1229.25,304.6,1230,305.18,1230.75,305.78Z"/><path class="cls-5" d="M1230.75,323.46c-19-14.31-37.17-29.52-54.57-45.45,18.62,7,36.75,14.36,54.57,21.93Z"/><path class="cls-5" d="M573.69,547.39c-27.48-17.1-55.78-33.63-85.4-49.22-90.75-47.76-198.45-88.9-325.52-109.51q151.85-13.5,286.16-22.5c122,49.12,221.68,114.22,316.93,181.23Z"/><path class="cls-5" d="M697.51,547.39c-104-70.82-219.62-139.71-366-182,145.49-12.68,277.25-21,396.45-24,99.36,67.88,192.23,141.89,291,205.93Z"/><path class="cls-5" d="M955.08,547.39c-30.75-21-61-42.56-91-64.24C753.6,403.58,641.24,318,491.59,255.41q123.8-14.92,230.53-18.12c151.24,107.37,281.81,228.54,435,310.1Z"/><path class="cls-5" d="M963,547.39Q938.7,531,915.18,514.33c111.21-2.2,216.59-9.74,315.57-21.26v54.32Z"/><path class="cls-5" d="M1138.2,547.39C1022.8,484.58,923.8,402.24,818,320.59c115,.05,218.4,7,311,18.82a800.07,800.07,0,0,0,101.69,69.19V547.39Z"/><path class="cls-5" d="M1230.75,380.36V473c-63.19-31.71-120.79-71.45-174.82-114.88,56.72,3.4,110.54,8.14,161.7,13.81Q1224.11,376.21,1230.75,380.36Z"/><path class="cls-5" d="M1230.75,428.65c-83.57-46.43-156.21-107.69-225.62-174.87,83,13.42,157.54,34.56,225.62,58.62Z"/><path class="cls-5" d="M1230.75,319.48q-12.59-9.56-24.56-19.6,12.4,4.39,24.56,8.95Z"/><path class="cls-5" d="M368.74,370c97.85-7.74,188.54-8.9,270.51-4.36,76,4.22,146,13.41,209.41,26.1-99.82-2-205.17-4.41-316.65-7-83.47-4.83-175.33-4.15-274,2.77q-60.54,4.25-125,11.68c23.72-3.9,47.19-7.57,70.15-10.83Q289.42,376.28,368.74,370Z"/><path class="cls-5" d="M0,417.43q68.31-10.68,133-18.17C94,405.66,54.08,412.82,13.08,421c-4.34.87-8.72,1.77-13.08,2.66Z"/><path class="cls-5" d="M1188.19,474.58q-91.32-8.55-186.54-20.42c-71.12-26-151.86-48-242.37-62.36-97.26-15.38-210.14-22.28-335-17.69-68.76,2.55-142.06,8.51-219.36,18.13Q107,404.42,0,424.57V404.23q112.57-33.51,221-64.62,134.64-23.87,252.26-33.85c72.05-6.16,139.72-8.68,202.45-7.85,113.85,1.48,215.22,14.2,301.76,33.52,147.75,33.09,265.32,87,370.8,143.15Z"/><path class="cls-5" d="M974.46,355.9c-90.73-21.64-198-36.06-318.93-37.78-66.9-1-139.33,1.86-216.61,8.84-84.32,7.7-175.3,20.38-272.39,38.55Q86.24,380.53,0,400.62V348c17.93-6.6,35.89-13.22,53.68-19.68q177.23-41,328-61.05c90.49-12.17,174.57-19,251.58-21.15a1735.39,1735.39,0,0,1,196.58,5.15A1389.43,1389.43,0,0,1,987.29,273.6c178,36.07,311.6,102.17,430.82,167q-104-1.59-214.87-6.62C1135.57,403.86,1060.16,376.41,974.46,355.9Z"/><path class="cls-5" d="M1295.37,474.58c-46.72-24-95.56-46.95-148.38-67.66-103.21-40.47-229.59-74.1-380-86.16,126.43-14.67,243.67-26.65,352.31-35.25q149.88-11.86,278.14-14.81c126.72,69.55,236,144.24,361.5,203.88Z"/><path class="cls-5" d="M1174.81,107.54q-146.16,16.42-320.91,54-95,20.26-197.84,46.14-108.27,27.09-224.43,59.83C538.25,255.32,635.81,250.7,723,252.61c79.3,1.77,151.92,8.81,216.93,19.7,120.08,20.12,220.78,54.19,307.15,91.81,142.9-2,273.19-3,392.39-2.9-67.4-40.72-132.94-84.31-205-127.25C1360,189.53,1277.3,144.75,1174.81,107.54Z"/><path class="cls-5" d="M1914.8,374.44v84.39c-60.76-21.65-117.13-48.46-169.36-77.56C1641.71,323.42,1549.55,254.9,1442.32,187c73.75.59,141.52,5.63,202.57,14.19C1728.38,268.34,1813.48,329.51,1914.8,374.44Z"/><path class="cls-5" d="M1333.2,125.3q-68.87,2.51-145.55,10.64-81.7,8.61-172.23,23.5c152.32,31.7,269.31,84.33,369,137.35q118.11-2.75,221.17.33C1521.35,241.57,1437.19,181.48,1333.2,125.3Z"/><path class="cls-5" d="M1763.76,238.2c58.74,44.62,121.4,85.37,191.15,118v41.16q-119.11,5.64-251.29,8.5C1599.05,346.91,1502,280.41,1386,218.21c-60.21-32.29-126.72-63.75-203.8-90.95-81.6-28.72-178.9-53.45-293.48-67.64q102.82-22.77,195.24-37,85.71-13.2,162.34-18.69c91.91-6.65,175.2-4.67,246.5,4.52C1591.34,91.09,1673.73,169.89,1763.76,238.2Z"/><path class="cls-5" d="M1914.8,265.77v64.35c-65-33.44-122.57-74.43-177-119.77,64.45,15.08,122.52,34.4,176.5,55.1C1914.48,265.56,1914.65,265.66,1914.8,265.77Z"/><path class="cls-5" d="M1545,29.81c-51.59-12-111.18-19.93-176.84-22,72.36,48.62,133.33,97.6,191.48,144.14,55.55,44.49,108.66,87.16,164.54,126.18,44.8,4.37,87.46,9.89,128.11,16.23-55-34.65-104.91-74.49-153.37-117.6C1647.76,131.28,1598.26,81.88,1545,29.81Z"/><path class="cls-5" d="M1914.8,367.9c-13.56-6-26.76-12.37-39.5-18.95q20,.8,39.5,1.66Z"/><path class="cls-5" d="M1822.13,145.82c28.48,33.08,59.12,63.77,92.67,91.38v45.71c-41.92-26.19-80.45-56.1-116.52-88.69-56.79-51.3-108.2-109.37-160.26-172.76C1712.5,56.78,1769.81,100.79,1822.13,145.82Z"/></g></g></g></g></svg>